<?xml version="1.0" encoding="utf-8"?>
<!-- Generator: Adobe Illustrator 19.2.1, SVG Export Plug-In . SVG Version: 6.00 Build 0)  -->
<svg version="1.1" id="Layer_1" xmlns="http://www.w3.org/2000/svg" xmlns:xlink="http://www.w3.org/1999/xlink" x="0px" y="0px"
	 viewBox="0 0 360 360" style="enable-background:new 0 0 360 360;" xml:space="preserve">
<style type="text/css">
	.st0{fill:#6B533E;}
	.st1{fill:#594436;}
	.st2{fill:#7F664B;}
	.st3{fill:#877551;}
</style>
<path class="st0" d="M351.8,360H8.2c-4.5,0-8.2-3.7-8.2-8.2V8.2C0,3.7,3.7,0,8.2,0h343.6c4.5,0,8.2,3.7,8.2,8.2v343.6
	C360,356.3,356.3,360,351.8,360z"/>
<path class="st1" d="M334.5,346.3H24.7c-6.6,0-12-5.4-12-12V24.4c0-6.6,5.4-12,12-12h309.9c6.6,0,12,5.4,12,12v309.9
	C346.5,340.9,341.1,346.3,334.5,346.3z"/>
<path class="st2" d="M300.7,331.3H58.5c-17,0-30.9-13.9-30.9-30.9V58.3c0-17,13.9-30.9,30.9-30.9h242.2c17,0,30.9,13.9,30.9,30.9
	v242.2C331.6,317.4,317.7,331.3,300.7,331.3z"/>
<path class="st3" d="M154.9,172.6H60c-9.9,0-18-8.1-18-18V59.8c0-9.9,8.1-18,18-18h94.9c9.9,0,18,8.1,18,18v94.9
	C172.8,164.5,164.8,172.6,154.9,172.6z"/>
<path class="st3" d="M300.5,172.6h-94.9c-9.9,0-18-8.1-18-18V59.8c0-9.9,8.1-18,18-18h94.9c9.9,0,18,8.1,18,18v94.9
	C318.4,164.5,310.3,172.6,300.5,172.6z"/>
<path class="st3" d="M154.2,313.8H59.4c-9.9,0-18-8.1-18-18V201c0-9.9,8.1-18,18-18h94.9c9.9,0,18,8.1,18,18v94.9
	C172.2,305.7,164.1,313.8,154.2,313.8z"/>
<path class="st3" d="M299.8,313.8H205c-9.9,0-18-8.1-18-18V201c0-9.9,8.1-18,18-18h94.9c9.9,0,18,8.1,18,18v94.9
	C317.8,305.7,309.7,313.8,299.8,313.8z"/>
</svg>
