<?xml version="1.0" encoding="utf-8"?>
<!-- Generator: Adobe Illustrator 19.2.1, SVG Export Plug-In . SVG Version: 6.00 Build 0)  -->
<svg version="1.1" id="Layer_1" xmlns="http://www.w3.org/2000/svg" xmlns:xlink="http://www.w3.org/1999/xlink" x="0px" y="0px"
	 viewBox="0 0 360 360" style="enable-background:new 0 0 360 360;" xml:space="preserve">
<style type="text/css">
	.st0{fill:#774F39;}
	.st1{fill:#C66D49;}
	.st2{fill:#CD6A48;}
	.st3{fill:#935D51;}
	.st4{fill:#8C524C;}
	.st5{fill:#BA6547;}
	.st6{fill:#9B5042;}
	.st7{fill:#C6814E;}
	.st8{fill:#B27246;}
	.st9{fill:#AE5D44;}
	.st10{fill:#C38D7B;}
	.st11{fill:#B26246;}
	.st12{fill:#BC6851;}
	.st13{fill:#8C5954;}
	.st14{fill:#A45742;}
</style>
<rect class="st0" width="360" height="360"/>
<path class="st1" d="M173.4,181H8.6c-4.2,0-7.6-3.4-7.6-7.6V8.6C1,4.4,4.4,1,8.6,1h164.7c4.2,0,7.6,3.4,7.6,7.6v164.7
	C181,177.6,177.6,181,173.4,181z"/>
<path class="st2" d="M351.4,359H186.6c-4.2,0-7.6-3.4-7.6-7.6V190.6c0-4.2,3.4-7.6,7.6-7.6h164.7c4.2,0,7.6,3.4,7.6,7.6v160.7
	C359,355.6,355.6,359,351.4,359z"/>
<path class="st3" d="M262,93l-67-2c-6.6-0.2-11.8-5.8-11.6-12.4l2-67c0.2-6.6,5.8-11.8,12.4-11.6l67,2c6.6,0.2,11.8,5.8,11.6,12.4
	l-2,67C274.1,87.9,268.6,93.2,262,93z"/>
<path class="st3" d="M163.6,276l-67-2c-6.6-0.2-11.8-5.8-11.6-12.4l2-67c0.2-6.6,5.8-11.8,12.4-11.6l67,2
	c6.6,0.2,11.8,5.8,11.6,12.4l-2,67C175.8,270.9,170.2,276.2,163.6,276z"/>
<path class="st4" d="M72.6,277.4l-55.7,1.2c-6.6,0.1-12.1-5.1-12.3-11.7l-1.4-67c-0.1-6.6,5.1-12.1,11.7-12.3l55.7-1.2
	c6.6-0.1,12.1,5.1,12.3,11.7l1.4,67C84.4,271.7,79.2,277.2,72.6,277.4z"/>
<path class="st5" d="M289,181h58c6.6,0,12-5.4,12-12V12c0-6.6-5.4-12-12-12l-58,0c-6.6,0-12,5.4-12,12v157
	C277,175.6,282.4,181,289,181z"/>
<path class="st5" d="M185.7,181.5l22.5,0.9c1.2-0.1,2.2-1.1,2.1-2.4l-8.6-29.9c-0.1-1.2-0.1-2.2-1.4-2.1l-16.5,0.1
	c-1.2,0.1-2.2,2.1-2.1,3.4l1.6,27.9C183.4,180.6,184.5,181.6,185.7,181.5z"/>
<path class="st5" d="M21.6,356.3l131.6-2.5c7.3-0.4,13.1-3,12.9-5.8L128,282.3c-0.2-2.8-6.4-4.9-13.6-4.5l-96.6,3.5
	c-7.3,0.4-13.3,5.3-13.2,8L8.1,352C8.3,354.7,14.4,356.7,21.6,356.3z"/>
<path class="st6" d="M232.5,150.3l-13.5-1.9c-0.8-0.2-1.7-0.5-2,0.7l-4,30.2c-0.3,1.2-0.6,2.1,0.2,2.3l10.1,0.6
	c0.8,0.2,2-1.5,2.3-2.7l7.6-26.7C233.6,151.7,233.2,150.5,232.5,150.3z"/>
<path class="st7" d="M278.2,179.3l-3.1-12.5c0-0.8-0.1-1.6-1.9-1.6l-40.5,5.2c-1.9,0-3.3,0.1-3.3,0.8l-2,9.1c0,0.8,3.1,1.3,5,1.3
	l42.5-1C276.7,180.7,278.2,180,278.2,179.3z"/>
<path class="st8" d="M276.1,162.6l-0.1-12.5c0-0.8-3.1-1.6-4.9-1.6l-31.5,6.2c-1.9,0-6.3-0.9-6.3-0.2l-3,12.1c0,0.8,1.1,1.3,3,1.3
	l39.5-4C274.6,164,276.1,163.3,276.1,162.6z"/>
<path class="st9" d="M182,99.5l1,44.4c0,2.2,1.9,3.9,4,3.9l84.7-1.8c2.2,0,3.9-1.9,3.9-4l-1-44.4c0-2.2-1.9-3.9-4-3.9l-84.7,1.8
	C183.7,95.5,182,97.3,182,99.5z"/>
<path class="st10" d="M154.9,304.9l-5-3.2c-5.4-3.4-6.9-10.7-3.5-16h0c3.4-5.4,10.7-6.9,16-3.5l5,3.2c5.4,3.4,6.9,10.7,3.5,16l0,0
	C167.5,306.7,160.3,308.3,154.9,304.9z"/>
<path class="st10" d="M157.2,318.5l0.7-1.6c1.2-2.9,4.6-4.2,7.5-3h0c2.9,1.2,4.2,4.6,3,7.5l-0.7,1.6c-1.2,2.9-4.6,4.2-7.5,3l0,0
	C157.3,324.7,156,321.3,157.2,318.5z"/>
<path class="st10" d="M170.4,310.7l0.5-1.1c0.5-1.1,1.8-1.7,2.9-1.2l0,0c1.1,0.5,1.7,1.8,1.2,2.9l-0.5,1.1c-0.5,1.1-1.8,1.7-2.9,1.2
	h0C170.5,313.1,169.9,311.8,170.4,310.7z"/>
<circle class="st11" cx="51" cy="60.3" r="5.5"/>
<circle class="st11" cx="35.9" cy="34.2" r="12.3"/>
<ellipse transform="matrix(0.2445 -0.9697 0.9697 0.2445 -98.3222 440.6196)" class="st12" cx="233.6" cy="283.4" rx="6.2" ry="5.5"/>
<ellipse transform="matrix(0.2445 -0.9697 0.9697 0.2445 -123.61 428.4083)" class="st12" cx="213.1" cy="293.5" rx="13.9" ry="12.3"/>
<circle class="st13" cx="139.1" cy="253.3" r="12.3"/>
<ellipse transform="matrix(0.9477 -0.3193 0.3193 0.9477 -30.4803 93.4628)" class="st14" cx="269.8" cy="139.7" rx="4.6" ry="6.3"/>
<ellipse class="st11" cx="151.4" cy="108.7" rx="4" ry="6.1"/>
</svg>
