<?xml version="1.0" encoding="utf-8"?>
<!-- Generator: Adobe Illustrator 19.2.1, SVG Export Plug-In . SVG Version: 6.00 Build 0)  -->
<svg version="1.1" id="Layer_1" xmlns="http://www.w3.org/2000/svg" xmlns:xlink="http://www.w3.org/1999/xlink" x="0px" y="0px"
	 viewBox="0 0 360 360" style="enable-background:new 0 0 360 360;" xml:space="preserve">
<style type="text/css">
	.st0{fill:#E4A675;}
	.st1{fill:#66683A;}
	.st2{fill:#C68240;}
	.st3{fill:#767D45;}
	.st4{fill:#D88A54;}
	.st5{fill:#A88D5D;}
	.st6{fill:#AF9264;}
	.st7{fill:#937B54;}
</style>
<path class="st0" d="M260.8,116.1h7.2c9.1,0,16.5-7.4,16.5-16.5v-5.4c0-9.1-7.4-16.5-16.5-16.5h-7.2c-9.1,0-16.5,7.4-16.5,16.5v5.4
	C244.3,108.6,251.7,116.1,260.8,116.1z"/>
<path class="st1" d="M259.1,77.1l-54.9-11c-5.1,0-9.3,5.4-9.3,12l10,29.9c0,6.6,4.2,12,9.3,12l44.9-4c5.1,0,0,0,0-12V89.1
	C259.1,77.1,264.2,77.1,259.1,77.1z"/>
<path class="st0" d="M257.2,294.3h10.5c9.1,0,16.5-7.4,16.5-16.5v-5.4c0-9.1-7.4-16.5-16.5-16.5h-10.5c-9.1,0-16.5,7.4-16.5,16.5
	v5.4C240.7,286.9,248.1,294.3,257.2,294.3z"/>
<path class="st1" d="M256.6,255.4l-48.6-2c-5.5,0-10,5.4-10,12l-10,25.9c0,6.6,4.5,12,10,12l58.6-9c5.5,0,0,0,0-12v-14.9
	C256.6,255.4,262.1,255.4,256.6,255.4z"/>
<path class="st2" d="M115.2,274.5h-1.7c-28.4,0-51.6-23.2-51.6-51.6v-84.3c0-28.4,23.2-51.6,51.6-51.6h1.7
	c28.4,0,51.6,23.2,51.6,51.6v84.3C166.8,251.2,143.6,274.5,115.2,274.5z"/>
<path class="st3" d="M173.7,314.7h-18.2c-22.1,0-40.2-18.1-40.2-40.2V88.6c0-22.1,18.1-40.2,40.2-40.2h18.2
	c22.1,0,40.2,18.1,40.2,40.2v185.9C213.9,296.6,195.8,314.7,173.7,314.7z"/>
<path class="st4" d="M115.3,95c0,0,72.8-20.2,98.7,4.9c0,12.9-1.3,5.3-1.3,5.3l-98.3,10.8L115.3,95z"/>
<path class="st4" d="M114.7,266.8c0,0,72.8,20.2,98.7-4.9c0-12.9-1.3-5.3-1.3-5.3l-98.3-10.8L114.7,266.8z"/>
<ellipse class="st5" cx="171" cy="180.7" rx="93.9" ry="84.2"/>
<ellipse transform="matrix(0.9153 -0.4028 0.4028 0.9153 -66.9175 84.2203)" class="st6" cx="166.8" cy="201.2" rx="44.8" ry="22"/>
<path class="st7" d="M217.9,107.5c35.3,15.3,82.6,91.8,5,143.4c-17.2-17.9-5-37.8-5-37.8s15-19.1,13.9-32.4
	c-1.1-13.4-13.9-33.7-13.9-33.7S196.9,121.6,217.9,107.5z"/>
<path class="st0" d="M222.9,110.5c33.9,14.7,74.4,90.9,0,140.4c-16.5-17.1,0-39.1,0-39.1s14.4-18.3,13.3-31.1s-13.3-32.3-13.3-32.3
	S202.7,124,222.9,110.5z"/>
</svg>
